<?xml version="1.0" encoding="UTF-8"?>
<svg id="uuid-4ae438aa-cf98-49ab-8c38-e8f05d7803c8" data-name="Lager_1" xmlns="http://www.w3.org/2000/svg" viewBox="0 0 72.93 78.11">
  <defs>
    <style>
      .uuid-b7c5668c-2f73-4323-8a24-f447f76137e0 {
        fill: #1d1d1b;
      }

      .uuid-1a1fddb3-f372-4e35-833e-85d50ed22b34 {
        fill: #fff;
      }

      .uuid-77497d14-2a93-404a-b9a7-240fff3a4277 {
        fill: none;
      }
    </style>
  </defs>
  <path class="uuid-b7c5668c-2f73-4323-8a24-f447f76137e0" d="M58.64,47.58c-2.29,1.97-5.22,2.96-8.76,2.96-2.33,0-4.39-.43-6.17-1.3-1.79-.87-3.29-2.17-4.5-3.89-2.46-3.48-3.71-8.37-3.71-14.53s1.25-11.07,3.71-14.57c1.15-1.66,2.57-2.91,4.24-3.78-.82,7.33.52,17.05,9.03,26.78,2.59,2.96,4.62,5.74,6.16,8.33Z"/>
  <path class="uuid-b7c5668c-2f73-4323-8a24-f447f76137e0" d="M62.95,59.49c-.12.01-.25.01-.38.01-1.16,0-2.31-.17-3.43-.5-1.15-.34-2.59-.86-4.29-1.54-1.89-.73-3.48-1.28-4.71-1.62-1.14-.32-2.34-.5-3.58-.53.48-.32,1.06-.65,1.72-.98.4.03.96.05,1.67.05,4.28,0,8-.69,11.12-2.06,1.11,2.63,1.69,5.02,1.88,7.17Z"/>
  <path class="uuid-b7c5668c-2f73-4323-8a24-f447f76137e0" d="M62.54,65.09c-1.12,4.31-3.95,7-6.25,8.03-.57.25-1.32.42-2.17.49l-41.04,4.42s-.04,0-.06,0c-.03,0-.05.01-.08.01-.23.03-.47.04-.7.05-5.81.24-12.13-4.48-10.28-12.65,1.2-5.29,3.99-7.57,6.88-7.98h.08s.89-.07.89-.07h.01c3.79,0,7.43,3.03,7.46,6.5.01,1.05-.12,1.95-.35,2.72l-7.11.58h-.01l-1.73.14c.16.36.33.69.51.99,1.95,2.6,4.61,2.72,4.61,2.72l6.78-.69c.3-.95.52-1.98.64-3.11.02-.18.04-.36.05-.55.19-2.8-.28-6.11-1.78-9.9-.01-.02-.01-.03-.02-.05-1.65-4.2-4.57-8.98-9.23-14.32C-8.3,21.92,4.3,1.49,4.3,1.49L47.36,0s-1.82,2.95-3.03,7.7c-4.79.82-8.64,2.76-11.5,5.79-3.9,4.13-5.87,9.96-5.87,17.33,0,6.45,1.52,11.75,4.52,15.75,2.81,3.74,6.9,6.17,12.16,7.22-2.23,1.13-4.44,2.64-6.57,4.51l-.23.2.86,1.5.33-.19c1.12-.67,2.1-1.09,2.91-1.25.83-.16,1.84-.25,3.02-.25.92,0,1.87.24,2.83.71.98.47,2.23,1.23,3.72,2.26,1.94,1.29,3.67,2.29,5.14,2.96,1.51.68,3.16,1.03,4.93,1.03.67,0,1.33-.06,1.96-.18Z"/>
  <path class="uuid-1a1fddb3-f372-4e35-833e-85d50ed22b34" d="M15.52,66.77h0s0,0-.01,0h0s.01,0,.01,0Z"/>
  <path class="uuid-b7c5668c-2f73-4323-8a24-f447f76137e0" d="M15.52,66.77h0s0,0-.01,0h0s.01,0,.01,0Z"/>
  <path class="uuid-77497d14-2a93-404a-b9a7-240fff3a4277" d="M20.67,66.7c-.01.19-.03.37-.05.55-.12,1.13-.34,2.16-.64,3.11l-6.78.69h.01s.16-.07.34-.16c.05-.03.12-.06.19-.1.1-.06.21-.12.33-.19.13-.09.28-.19.43-.31.11-.08.21-.16.32-.26.09-.08.18-.16.27-.25.32-.31.64-.68.93-1.13.07-.1.14-.22.2-.33.06-.09.11-.19.16-.3.08-.14.15-.29.21-.45,0,0,.01,0,.01-.01,0,0,.01-.01.01-.02.06-.13.11-.27.16-.41.06-.16.11-.33.16-.5h.01s-.01-.01-.01-.01c.23-.77.36-1.67.35-2.72-.03-3.47-3.67-6.5-7.46-6.5l9.05-.65s.01.03.02.05c1.5,3.79,1.97,7.1,1.78,9.9Z"/>
  <g>
    <path class="uuid-b7c5668c-2f73-4323-8a24-f447f76137e0" d="M69.38,55.28l-.06-.29h-1.81l-.08.27c-.45,1.55-1.04,2.66-1.76,3.3-.63.56-1.54.88-2.72.93.2,2.1.02,3.96-.41,5.6.91-.17,1.78-.47,2.59-.89,1.38-.72,2.48-1.72,3.27-2.97.78-1.26,1.18-2.65,1.18-4.13,0-.58-.07-1.19-.2-1.82ZM67.07,13.49c-3.91-4.14-9.67-6.24-17.12-6.24-2,0-3.87.15-5.62.45-.38,1.44-.69,3.04-.88,4.77,1.84-.96,3.99-1.44,6.43-1.44,4.7,0,8.33,1.76,10.78,5.22,2.47,3.5,3.73,8.41,3.73,14.57s-1.26,11.05-3.73,14.53c-.6.85-1.28,1.59-2.02,2.23,1,1.66,1.8,3.24,2.43,4.74,2.33-1.02,4.34-2.41,6-4.17,3.89-4.14,5.86-9.97,5.86-17.33s-1.97-13.2-5.86-17.33Z"/>
    <path class="uuid-77497d14-2a93-404a-b9a7-240fff3a4277" d="M64.39,30.82c0,6.16-1.26,11.05-3.73,14.53-.6.85-1.28,1.59-2.02,2.23-1.54-2.59-3.57-5.37-6.16-8.33-8.51-9.73-9.85-19.45-9.03-26.78,1.84-.96,3.99-1.44,6.43-1.44,4.7,0,8.33,1.76,10.78,5.22,2.47,3.5,3.73,8.41,3.73,14.57Z"/>
    <path class="uuid-77497d14-2a93-404a-b9a7-240fff3a4277" d="M62.54,65.09c-.63.12-1.29.18-1.96.18-1.77,0-3.42-.35-4.93-1.03-1.47-.67-3.2-1.67-5.14-2.96-1.49-1.03-2.74-1.79-3.72-2.26-.96-.47-1.91-.71-2.83-.71-1.18,0-2.19.09-3.02.25-.81.16-1.79.58-2.91,1.25l-.33.19-.86-1.5.23-.2c2.13-1.87,4.34-3.38,6.57-4.51-5.26-1.05-9.35-3.48-12.16-7.22-3-4-4.52-9.3-4.52-15.75,0-7.37,1.97-13.2,5.87-17.33,2.86-3.03,6.71-4.97,11.5-5.79-.38,1.44-.69,3.04-.88,4.77-1.67.87-3.09,2.12-4.24,3.78-2.46,3.5-3.71,8.4-3.71,14.57s1.25,11.05,3.71,14.53c1.21,1.72,2.71,3.02,4.5,3.89,1.78.87,3.84,1.3,6.17,1.3,3.54,0,6.47-.99,8.76-2.96,1,1.66,1.8,3.24,2.43,4.74-3.12,1.37-6.84,2.06-11.12,2.06-.71,0-1.27-.02-1.67-.05-.66.33-1.24.66-1.72.98,1.24.03,2.44.21,3.58.53,1.23.34,2.82.89,4.71,1.62,1.7.68,3.14,1.2,4.29,1.54,1.12.33,2.27.5,3.43.5.13,0,.26,0,.38-.01.2,2.1.02,3.96-.41,5.6Z"/>
  </g>
  <path class="uuid-77497d14-2a93-404a-b9a7-240fff3a4277" d="M9.82,67.2h-.01l-1.73.14c.16.36.33.69.51.99,1.95,2.6,4.61,2.72,4.61,2.72h.01s.16-.07.34-.16c.05-.03.12-.06.19-.1.1-.06.21-.12.33-.19.13-.09.28-.19.43-.31.11-.08.21-.16.32-.26.09-.08.18-.16.27-.25.32-.31.64-.68.93-1.13.07-.1.14-.22.2-.33.06-.09.11-.19.16-.3.08-.14.15-.29.21-.45,0,0,.01,0,.01-.01,0,0,.01-.01.01-.02.06-.13.11-.27.16-.41.06-.16.11-.33.16-.5h0s-7.11.57-7.11.57ZM15.52,66.78h-.01s.01-.01.01-.01h0Z"/>
  <path class="uuid-b7c5668c-2f73-4323-8a24-f447f76137e0" d="M15.52,66.77h0s0,0-.01,0h0s.01,0,.01,0Z"/>
</svg>